# xmcd
#
# Track frame offsets:
#	150
#	13650
#	29121
#	46185
#	65760
#	78656
#	94829
#	109166
#	128174
#	142700
#	160817
#	176909
#	191597
#	212981
#	225968
#	245975
#	259529
#	274538
#
# Disc length: 3887 seconds
#
# Revision: 1
# Processed by: cddbd v1.4PL0 Copyright (c) Steve Scherf et al.
# Submitted via: audiograbber 1.80
#
DISCID=010f2d12
DTITLE=Parad Lyubvi - Parad Lyubvi
DYEAR=1900
DGENRE=
TTITLE0=Gosti Iz Budushego - Devushka, Kotoraya Poet
TTITLE1=M. Rjevskaya - Kogda Ya Stanu Koshkoi
TTITLE2=Drugie Pravila - Ona Tebe Nujna
TTITLE3=T. Bulanova - Angel
TTITLE4=V. Butusov - Pesnya Idushego Domoi
TTITLE5=Reflex - Padali Zvezdu
TTITLE6=N. Vlasova - Apeet Leto
TTITLE7=Vitas - Daje Zvezdu Pokajutsya
TTITLE8=Hi - Fi
TTITLE9=Kraski - Ya Lyublyu Tebya, Sergei
TTITLE10=Premyer Ministr - Dve Minutu
TTITLE11=Sashach - Serdechko
TTITLE12=I. Shianov - Dva Lebedya
TTITLE13=A. Apina and T. Ivanova - Poidem So Mnoi
TTITLE14=Blestyashie - Ya I Tu
TTITLE15=Dado - Leila
TTITLE16=Padistka Ket - Gitara Ispanka
TTITLE17=L. Zosimova - Zabud
EXTD=
EXTT0=
EXTT1=
EXTT2=
EXTT3=
EXTT4=
EXTT5=
EXTT6=
EXTT7=
EXTT8=
EXTT9=
EXTT10=
EXTT11=
EXTT12=
EXTT13=
EXTT14=
EXTT15=
EXTT16=
EXTT17=
PLAYORDER=
